<svg xmlns="http://www.w3.org/2000/svg" viewBox="0 0 1280 720">
<rect width="1280" height="720" fill="#edf6ff"/>
<rect x="90" y="110" width="1100" height="500" rx="28" fill="#e2e8f0"/>
<rect x="150" y="190" width="220" height="145" rx="16" fill="#1e293b"/>
<rect x="530" y="190" width="220" height="145" rx="16" fill="#1e293b"/>
<rect x="910" y="190" width="220" height="145" rx="16" fill="#1e293b"/>
<rect x="175" y="350" width="170" height="20" rx="10" fill="#64748b"/>
<rect x="555" y="350" width="170" height="20" rx="10" fill="#64748b"/>
<rect x="935" y="350" width="170" height="20" rx="10" fill="#64748b"/>
<rect x="170" y="430" width="940" height="90" rx="18" fill="#cbd5e1"/>
<g>
  <circle cx="270" cy="455" r="28" fill="#f59e0b"/>
  <rect x="240" y="485" width="60" height="86" rx="22" fill="#f97316"/>
  <circle cx="640" cy="455" r="28" fill="#3b82f6"/>
  <rect x="610" y="485" width="60" height="86" rx="22" fill="#2563eb"/>
  <circle cx="1010" cy="455" r="28" fill="#10b981"/>
  <rect x="980" y="485" width="60" height="86" rx="22" fill="#059669"/>
</g>
<g transform="translate(930,95)">
  <ellipse cx="120" cy="80" rx="100" ry="52" fill="#dbeafe"/>
  <ellipse cx="120" cy="80" rx="70" ry="30" fill="#fff"/>
  <circle cx="120" cy="80" r="18" fill="#2563eb"/>
</g>
<text x="640" y="620" text-anchor="middle" font-family="Arial, sans-serif" font-size="40" fill="#334155">Laboratório de informática</text>
</svg>